<svg xmlns="http://www.w3.org/2000/svg" xmlns:xlink="http://www.w3.org/1999/xlink" zoomAndPan="magnify" viewBox="126 489 852 153" preserveAspectRatio="xMidYMid meet" version="1.0"><defs><g></g><clipPath id="1844122ea8"><path d="M 730 29 L 748.960938 29 L 748.960938 109 L 730 109 Z M 730 29 " clip-rule="nonzero"></path></clipPath><clipPath id="8639b202b7"><rect x="0" width="749" y="0" height="143"></rect></clipPath><clipPath id="d82e5c6760"><path d="M 131.167969 517.066406 L 226.417969 517.066406 L 226.417969 599.566406 L 131.167969 599.566406 Z M 131.167969 517.066406 " clip-rule="nonzero"></path></clipPath></defs><g transform="matrix(1, 0, 0, 1, 224, 491)"><g clip-path="url(#8639b202b7)"><g fill="currentColor" fill-opacity="1"><g transform="translate(1.25654, 108.712227)"><g><path d="M 14.703125 -62.890625 C 12.140625 -62.890625 10.035156 -63.65625 8.390625 -65.1875 C 6.742188 -66.726562 5.921875 -68.671875 5.921875 -71.015625 C 5.921875 -73.359375 6.742188 -75.28125 8.390625 -76.78125 C 10.035156 -78.28125 12.140625 -79.03125 14.703125 -79.03125 C 17.265625 -79.03125 19.367188 -78.28125 21.015625 -76.78125 C 22.660156 -75.28125 23.484375 -73.359375 23.484375 -71.015625 C 23.484375 -68.671875 22.660156 -66.726562 21.015625 -65.1875 C 19.367188 -63.65625 17.265625 -62.890625 14.703125 -62.890625 Z M 7.6875 0 L 7.6875 -54.4375 L 21.734375 -54.4375 L 21.734375 0 Z M 7.6875 0 "></path></g></g></g><g fill="currentColor" fill-opacity="1"><g transform="translate(22.330719, 108.712227)"><g><path d="M 7.140625 0 L 7.140625 -54.4375 L 19.53125 -54.4375 L 20.640625 -45.21875 C 22.316406 -48.4375 24.742188 -51 27.921875 -52.90625 C 31.109375 -54.8125 34.863281 -55.765625 39.1875 -55.765625 C 45.914062 -55.765625 51.144531 -53.640625 54.875 -49.390625 C 58.613281 -45.148438 60.484375 -38.929688 60.484375 -30.734375 L 60.484375 0 L 46.4375 0 L 46.4375 -29.421875 C 46.4375 -34.097656 45.484375 -37.679688 43.578125 -40.171875 C 41.671875 -42.660156 38.707031 -43.90625 34.6875 -43.90625 C 30.738281 -43.90625 27.5 -42.515625 24.96875 -39.734375 C 22.445312 -36.953125 21.1875 -33.070312 21.1875 -28.09375 L 21.1875 0 Z M 7.140625 0 "></path></g></g></g><g fill="currentColor" fill-opacity="1"><g transform="translate(80.83426, 108.712227)"><g><path d="M 7.140625 0 L 7.140625 -54.4375 L 21.1875 -54.4375 L 21.1875 0 Z M 10.53125 -58.828125 L 10.53125 -68.71875 L 35.34375 -82.109375 L 35.34375 -70.6875 Z M 10.53125 -58.828125 "></path></g></g></g><g fill="currentColor" fill-opacity="1"><g transform="translate(101.030329, 108.712227)"><g><path d="M 33.8125 1.3125 C 28.25 1.3125 23.34375 0.109375 19.09375 -2.296875 C 14.851562 -4.710938 11.503906 -8.078125 9.046875 -12.390625 C 6.597656 -16.710938 5.375 -21.65625 5.375 -27.21875 C 5.375 -32.78125 6.597656 -37.71875 9.046875 -42.03125 C 11.503906 -46.351562 14.851562 -49.722656 19.09375 -52.140625 C 23.34375 -54.554688 28.25 -55.765625 33.8125 -55.765625 C 40.757812 -55.765625 46.609375 -53.953125 51.359375 -50.328125 C 56.117188 -46.703125 59.160156 -41.707031 60.484375 -35.34375 L 45.65625 -35.34375 C 44.925781 -37.976562 43.484375 -40.046875 41.328125 -41.546875 C 39.171875 -43.046875 36.628906 -43.796875 33.703125 -43.796875 C 29.816406 -43.796875 26.519531 -42.332031 23.8125 -39.40625 C 21.101562 -36.476562 19.75 -32.414062 19.75 -27.21875 C 19.75 -22.019531 21.101562 -17.957031 23.8125 -15.03125 C 26.519531 -12.101562 29.816406 -10.640625 33.703125 -10.640625 C 36.628906 -10.640625 39.171875 -11.367188 41.328125 -12.828125 C 43.484375 -14.296875 44.925781 -16.382812 45.65625 -19.09375 L 60.484375 -19.09375 C 59.160156 -12.945312 56.117188 -8.007812 51.359375 -4.28125 C 46.609375 -0.550781 40.757812 1.3125 33.8125 1.3125 Z M 33.8125 1.3125 "></path></g></g></g><g fill="currentColor" fill-opacity="1"><g transform="translate(158.65576, 108.712227)"><g><path d="M 14.703125 -62.890625 C 12.140625 -62.890625 10.035156 -63.65625 8.390625 -65.1875 C 6.742188 -66.726562 5.921875 -68.671875 5.921875 -71.015625 C 5.921875 -73.359375 6.742188 -75.28125 8.390625 -76.78125 C 10.035156 -78.28125 12.140625 -79.03125 14.703125 -79.03125 C 17.265625 -79.03125 19.367188 -78.28125 21.015625 -76.78125 C 22.660156 -75.28125 23.484375 -73.359375 23.484375 -71.015625 C 23.484375 -68.671875 22.660156 -66.726562 21.015625 -65.1875 C 19.367188 -63.65625 17.265625 -62.890625 14.703125 -62.890625 Z M 7.6875 0 L 7.6875 -54.4375 L 21.734375 -54.4375 L 21.734375 0 Z M 7.6875 0 "></path></g></g></g><g fill="currentColor" fill-opacity="1"><g transform="translate(179.72994, 108.712227)"><g><path d="M 27.546875 1.3125 C 20.742188 1.3125 15.492188 -0.804688 11.796875 -5.046875 C 8.097656 -9.296875 6.25 -15.515625 6.25 -23.703125 L 6.25 -54.4375 L 20.203125 -54.4375 L 20.203125 -25.03125 C 20.203125 -20.34375 21.148438 -16.753906 23.046875 -14.265625 C 24.953125 -11.773438 27.953125 -10.53125 32.046875 -10.53125 C 35.929688 -10.53125 39.132812 -11.921875 41.65625 -14.703125 C 44.175781 -17.484375 45.4375 -21.363281 45.4375 -26.34375 L 45.4375 -54.4375 L 59.5 -54.4375 L 59.5 0 L 47.09375 0 L 45.984375 -9.21875 C 44.304688 -6 41.875 -3.4375 38.6875 -1.53125 C 35.507812 0.363281 31.796875 1.3125 27.546875 1.3125 Z M 27.546875 1.3125 "></path></g></g></g><g fill="currentColor" fill-opacity="1"><g transform="translate(238.23348, 108.712227)"><g><path d="M 29.640625 1.3125 C 24.804688 1.3125 20.5625 0.523438 16.90625 -1.046875 C 13.25 -2.617188 10.320312 -4.796875 8.125 -7.578125 C 5.925781 -10.359375 4.609375 -13.578125 4.171875 -17.234375 L 18.328125 -17.234375 C 18.765625 -15.109375 19.953125 -13.296875 21.890625 -11.796875 C 23.835938 -10.296875 26.347656 -9.546875 29.421875 -9.546875 C 32.492188 -9.546875 34.742188 -10.164062 36.171875 -11.40625 C 37.597656 -12.65625 38.3125 -14.085938 38.3125 -15.703125 C 38.3125 -18.035156 37.285156 -19.625 35.234375 -20.46875 C 33.179688 -21.3125 30.328125 -22.132812 26.671875 -22.9375 C 24.328125 -23.445312 21.945312 -24.066406 19.53125 -24.796875 C 17.125 -25.535156 14.910156 -26.472656 12.890625 -27.609375 C 10.878906 -28.742188 9.25 -30.207031 8 -32 C 6.757812 -33.789062 6.140625 -36.003906 6.140625 -38.640625 C 6.140625 -43.460938 8.0625 -47.519531 11.90625 -50.8125 C 15.75 -54.113281 21.144531 -55.765625 28.09375 -55.765625 C 34.539062 -55.765625 39.679688 -54.265625 43.515625 -51.265625 C 47.359375 -48.265625 49.644531 -44.128906 50.375 -38.859375 L 37.09375 -38.859375 C 36.289062 -42.878906 33.253906 -44.890625 27.984375 -44.890625 C 25.347656 -44.890625 23.316406 -44.378906 21.890625 -43.359375 C 20.460938 -42.335938 19.75 -41.054688 19.75 -39.515625 C 19.75 -37.898438 20.8125 -36.617188 22.9375 -35.671875 C 25.0625 -34.722656 27.878906 -33.847656 31.390625 -33.046875 C 35.191406 -32.160156 38.6875 -31.1875 41.875 -30.125 C 45.0625 -29.0625 47.601562 -27.488281 49.5 -25.40625 C 51.40625 -23.320312 52.359375 -20.34375 52.359375 -16.46875 C 52.429688 -13.101562 51.550781 -10.066406 49.71875 -7.359375 C 47.894531 -4.648438 45.257812 -2.523438 41.8125 -0.984375 C 38.375 0.546875 34.316406 1.3125 29.640625 1.3125 Z M 29.640625 1.3125 "></path></g></g></g><g fill="currentColor" fill-opacity="1"><g transform="translate(287.626636, 108.712227)"><g></g></g></g><g fill="currentColor" fill-opacity="1"><g transform="translate(305.517662, 108.712227)"><g><path d="M 7.46875 0 L 7.46875 -76.828125 L 24.140625 -76.828125 L 48.625 -28.09375 L 72.78125 -76.828125 L 89.453125 -76.828125 L 89.453125 0 L 75.40625 0 L 75.40625 -53.015625 L 54 -10.96875 L 42.921875 -10.96875 L 21.515625 -53.015625 L 21.515625 0 Z M 7.46875 0 "></path></g></g></g><g fill="currentColor" fill-opacity="1"><g transform="translate(394.206176, 108.712227)"><g><path d="M 13.171875 0.765625 C 10.609375 0.765625 8.503906 -0.0351562 6.859375 -1.640625 C 5.210938 -3.253906 4.390625 -5.195312 4.390625 -7.46875 C 4.390625 -9.800781 5.210938 -11.773438 6.859375 -13.390625 C 8.503906 -15.003906 10.609375 -15.8125 13.171875 -15.8125 C 15.734375 -15.8125 17.835938 -15.003906 19.484375 -13.390625 C 21.128906 -11.773438 21.953125 -9.800781 21.953125 -7.46875 C 21.953125 -5.195312 21.128906 -3.253906 19.484375 -1.640625 C 17.835938 -0.0351562 15.734375 0.765625 13.171875 0.765625 Z M 13.171875 0.765625 "></path></g></g></g><g fill="currentColor" fill-opacity="1"><g transform="translate(412.316757, 108.712227)"><g></g></g></g><g fill="currentColor" fill-opacity="1"><g transform="translate(430.207783, 108.712227)"><g><path d="M 7.46875 0 L 7.46875 -76.828125 L 57.078125 -76.828125 L 57.078125 -65.53125 L 21.515625 -65.53125 L 21.515625 -44.015625 L 50.265625 -44.015625 L 50.265625 -32.921875 L 21.515625 -32.921875 L 21.515625 0 Z M 7.46875 0 "></path></g></g></g><g fill="currentColor" fill-opacity="1"><g transform="translate(482.454792, 108.712227)"><g><path d="M 33.265625 1.3125 C 27.992188 1.3125 23.253906 0.109375 19.046875 -2.296875 C 14.835938 -4.710938 11.503906 -8.0625 9.046875 -12.34375 C 6.597656 -16.625 5.375 -21.582031 5.375 -27.21875 C 5.375 -32.851562 6.617188 -37.8125 9.109375 -42.09375 C 11.597656 -46.375 14.945312 -49.722656 19.15625 -52.140625 C 23.363281 -54.554688 28.101562 -55.765625 33.375 -55.765625 C 38.5625 -55.765625 43.257812 -54.554688 47.46875 -52.140625 C 51.675781 -49.722656 55.003906 -46.375 57.453125 -42.09375 C 59.910156 -37.8125 61.140625 -32.851562 61.140625 -27.21875 C 61.140625 -21.582031 59.910156 -16.625 57.453125 -12.34375 C 55.003906 -8.0625 51.65625 -4.710938 47.40625 -2.296875 C 43.164062 0.109375 38.453125 1.3125 33.265625 1.3125 Z M 33.265625 -10.859375 C 36.921875 -10.859375 40.101562 -12.226562 42.8125 -14.96875 C 45.519531 -17.71875 46.875 -21.800781 46.875 -27.21875 C 46.875 -32.632812 45.519531 -36.710938 42.8125 -39.453125 C 40.101562 -42.203125 36.957031 -43.578125 33.375 -43.578125 C 29.632812 -43.578125 26.425781 -42.203125 23.75 -39.453125 C 21.082031 -36.710938 19.75 -32.632812 19.75 -27.21875 C 19.75 -21.800781 21.082031 -17.71875 23.75 -14.96875 C 26.425781 -12.226562 29.597656 -10.859375 33.265625 -10.859375 Z M 33.265625 -10.859375 "></path></g></g></g><g fill="currentColor" fill-opacity="1"><g transform="translate(540.738809, 108.712227)"><g><path d="M 7.140625 0 L 7.140625 -54.4375 L 19.640625 -54.4375 L 20.96875 -44.234375 C 22.9375 -47.742188 25.625 -50.539062 29.03125 -52.625 C 32.4375 -54.71875 36.441406 -55.765625 41.046875 -55.765625 L 41.046875 -40.9375 L 37.09375 -40.9375 C 34.019531 -40.9375 31.273438 -40.460938 28.859375 -39.515625 C 26.453125 -38.566406 24.570312 -36.921875 23.21875 -34.578125 C 21.863281 -32.234375 21.1875 -28.976562 21.1875 -24.8125 L 21.1875 0 Z M 7.140625 0 "></path></g></g></g><g fill="currentColor" fill-opacity="1"><g transform="translate(575.972477, 108.712227)"><g><path d="M 7.140625 0 L 7.140625 -54.4375 L 19.53125 -54.4375 L 20.640625 -45.21875 C 22.316406 -48.4375 24.742188 -51 27.921875 -52.90625 C 31.109375 -54.8125 34.863281 -55.765625 39.1875 -55.765625 C 45.914062 -55.765625 51.144531 -53.640625 54.875 -49.390625 C 58.613281 -45.148438 60.484375 -38.929688 60.484375 -30.734375 L 60.484375 0 L 46.4375 0 L 46.4375 -29.421875 C 46.4375 -34.097656 45.484375 -37.679688 43.578125 -40.171875 C 41.671875 -42.660156 38.707031 -43.90625 34.6875 -43.90625 C 30.738281 -43.90625 27.5 -42.515625 24.96875 -39.734375 C 22.445312 -36.953125 21.1875 -33.070312 21.1875 -28.09375 L 21.1875 0 Z M 7.140625 0 "></path></g></g></g><g fill="currentColor" fill-opacity="1"><g transform="translate(634.476017, 108.712227)"><g><path d="M 25.90625 1.3125 C 21.21875 1.3125 17.375 0.5625 14.375 -0.9375 C 11.375 -2.4375 9.140625 -4.425781 7.671875 -6.90625 C 6.210938 -9.394531 5.484375 -12.140625 5.484375 -15.140625 C 5.484375 -20.191406 7.457031 -24.289062 11.40625 -27.4375 C 15.363281 -30.582031 21.296875 -32.15625 29.203125 -32.15625 L 43.03125 -32.15625 L 43.03125 -33.484375 C 43.03125 -37.210938 41.96875 -39.953125 39.84375 -41.703125 C 37.71875 -43.460938 35.082031 -44.34375 31.9375 -44.34375 C 29.082031 -44.34375 26.59375 -43.664062 24.46875 -42.3125 C 22.351562 -40.957031 21.039062 -38.960938 20.53125 -36.328125 L 6.8125 -36.328125 C 7.175781 -40.285156 8.507812 -43.726562 10.8125 -46.65625 C 13.113281 -49.582031 16.09375 -51.832031 19.75 -53.40625 C 23.414062 -54.976562 27.515625 -55.765625 32.046875 -55.765625 C 39.804688 -55.765625 45.914062 -53.820312 50.375 -49.9375 C 54.84375 -46.0625 57.078125 -40.578125 57.078125 -33.484375 L 57.078125 0 L 45.109375 0 L 43.796875 -8.78125 C 42.179688 -5.851562 39.925781 -3.4375 37.03125 -1.53125 C 34.144531 0.363281 30.4375 1.3125 25.90625 1.3125 Z M 29.09375 -9.65625 C 33.113281 -9.65625 36.238281 -10.972656 38.46875 -13.609375 C 40.707031 -16.242188 42.117188 -19.5 42.703125 -23.375 L 30.734375 -23.375 C 27.003906 -23.375 24.332031 -22.695312 22.71875 -21.34375 C 21.113281 -19.988281 20.3125 -18.328125 20.3125 -16.359375 C 20.3125 -14.234375 21.113281 -12.582031 22.71875 -11.40625 C 24.332031 -10.238281 26.457031 -9.65625 29.09375 -9.65625 Z M 29.09375 -9.65625 "></path></g></g></g><g fill="currentColor" fill-opacity="1"><g transform="translate(689.576832, 108.712227)"><g><path d="M 7.140625 0 L 7.140625 -54.4375 L 19.640625 -54.4375 L 20.96875 -44.234375 C 22.9375 -47.742188 25.625 -50.539062 29.03125 -52.625 C 32.4375 -54.71875 36.441406 -55.765625 41.046875 -55.765625 L 41.046875 -40.9375 L 37.09375 -40.9375 C 34.019531 -40.9375 31.273438 -40.460938 28.859375 -39.515625 C 26.453125 -38.566406 24.570312 -36.921875 23.21875 -34.578125 C 21.863281 -32.234375 21.1875 -28.976562 21.1875 -24.8125 L 21.1875 0 Z M 7.140625 0 "></path></g></g></g><g clip-path="url(#1844122ea8)"><g fill="currentColor" fill-opacity="1"><g transform="translate(724.8105, 108.712227)"><g><path d="M 14.703125 -62.890625 C 12.140625 -62.890625 10.035156 -63.65625 8.390625 -65.1875 C 6.742188 -66.726562 5.921875 -68.671875 5.921875 -71.015625 C 5.921875 -73.359375 6.742188 -75.28125 8.390625 -76.78125 C 10.035156 -78.28125 12.140625 -79.03125 14.703125 -79.03125 C 17.265625 -79.03125 19.367188 -78.28125 21.015625 -76.78125 C 22.660156 -75.28125 23.484375 -73.359375 23.484375 -71.015625 C 23.484375 -68.671875 22.660156 -66.726562 21.015625 -65.1875 C 19.367188 -63.65625 17.265625 -62.890625 14.703125 -62.890625 Z M 7.6875 0 L 7.6875 -54.4375 L 21.734375 -54.4375 L 21.734375 0 Z M 7.6875 0 "></path></g></g></g></g></g></g><g clip-path="url(#d82e5c6760)"><path fill="currentColor" d="M 208.585938 547.609375 L 226.214844 517.066406 L 196.320312 517.066406 L 178.691406 547.609375 L 161.066406 517.066406 L 131.171875 517.066406 L 163.746094 573.476562 L 178.691406 599.367188 L 193.640625 573.476562 L 178.691406 547.609375 Z M 208.585938 547.609375 " fill-opacity="1" fill-rule="evenodd"></path></g></svg>